<svg width="44" height="45" viewBox="0 0 44 45" fill="none" xmlns="http://www.w3.org/2000/svg">
<g id="devicon:twitter">
<path id="Vector" d="M39.4955 13.5239C39.5223 13.912 39.5223 14.2998 39.5223 14.6913C39.5223 26.6194 30.4415 40.3763 13.8373 40.3763V40.3694C8.93203 40.3763 4.12841 38.9713 0 36.3221C0.713281 36.4081 1.43 36.451 2.14844 36.4527C6.21401 36.456 10.1626 35.0924 13.3598 32.5811C11.4761 32.5455 9.65053 31.9221 8.13843 30.7981C6.62633 29.6741 5.50327 28.1057 4.92628 26.3121C6.27962 26.5734 7.67387 26.5194 9.00212 26.1564C4.7905 25.3056 1.76069 21.6055 1.76069 17.3083V17.1938C3.01617 17.8932 4.42133 18.2807 5.85784 18.3237C1.89062 15.6727 0.668594 10.3958 3.06384 6.27046C5.33015 9.05918 8.15774 11.34 11.3629 12.9647C14.5681 14.5895 18.0793 15.5218 21.6683 15.7012C21.3105 14.1608 21.3635 12.5535 21.8218 11.0399C22.2802 9.52639 23.1279 8.15971 24.2801 7.07655C27.9159 3.65865 33.6342 3.83396 37.0518 7.46808C39.0734 7.0689 41.0122 6.32768 42.7845 5.27633C42.1106 7.36657 40.7004 9.14089 38.8162 10.2693C40.6057 10.0583 42.3532 9.57915 44 8.8479C42.7886 10.6621 41.2632 12.2456 39.4955 13.5239Z" fill="#1D9BF0"/>
</g>
</svg>
