<svg width="44" height="45" viewBox="0 0 44 45" fill="none" xmlns="http://www.w3.org/2000/svg">
<g id="skill-icons:instagram" clip-path="url(#clip0_24_1249)">
<g id="Group">
<path id="Vector" d="M33.6875 0.5H10.3125C4.61706 0.5 0 5.11706 0 10.8125V34.1875C0 39.8829 4.61706 44.5 10.3125 44.5H33.6875C39.3829 44.5 44 39.8829 44 34.1875V10.8125C44 5.11706 39.3829 0.5 33.6875 0.5Z" fill="url(#paint0_radial_24_1249)"/>
<path id="Vector_2" d="M33.6875 0.5H10.3125C4.61706 0.5 0 5.11706 0 10.8125V34.1875C0 39.8829 4.61706 44.5 10.3125 44.5H33.6875C39.3829 44.5 44 39.8829 44 34.1875V10.8125C44 5.11706 39.3829 0.5 33.6875 0.5Z" fill="url(#paint1_radial_24_1249)"/>
<path id="Vector_3" d="M22.0015 5.3125C17.3338 5.3125 16.7478 5.33295 14.9146 5.41631C13.0848 5.50019 11.8358 5.7898 10.743 6.21484C9.61245 6.65381 8.65356 7.24111 7.69828 8.19673C6.74214 9.15219 6.15484 10.1111 5.7145 11.2412C5.28825 12.3343 4.9983 13.5838 4.91597 15.4127C4.83398 17.2461 4.8125 17.8322 4.8125 22.5002C4.8125 27.1681 4.83313 27.7522 4.91631 29.5854C5.00053 31.4152 5.29014 32.6642 5.71484 33.757C6.15416 34.8875 6.74145 35.8464 7.69708 36.8017C8.65219 37.7579 9.61108 38.3465 10.7408 38.7855C11.8345 39.2105 13.0836 39.5002 14.9131 39.584C16.7465 39.6674 17.3319 39.6878 21.9995 39.6878C26.6678 39.6878 27.2518 39.6674 29.085 39.584C30.9148 39.5002 32.1652 39.2105 33.2588 38.7855C34.3889 38.3465 35.3464 37.7579 36.3014 36.8017C37.2575 35.8464 37.8446 34.8875 38.2852 33.7575C38.7076 32.6642 38.9977 31.4148 39.0837 29.5857C39.166 27.7525 39.1875 27.1681 39.1875 22.5002C39.1875 17.8322 39.166 17.2465 39.0837 15.4131C38.9977 13.5833 38.7076 12.3345 38.2852 11.2417C37.8446 10.1111 37.2575 9.15219 36.3014 8.19673C35.3454 7.24077 34.3893 6.65347 33.2578 6.21502C32.1621 5.7898 30.9124 5.50002 29.0826 5.41631C27.2492 5.33295 26.6655 5.3125 21.9962 5.3125H22.0015ZM20.4597 8.40986C20.9174 8.40917 21.428 8.40986 22.0015 8.40986C26.5908 8.40986 27.1346 8.42636 28.9468 8.50869C30.6226 8.58534 31.5322 8.86533 32.138 9.10063C32.9402 9.41206 33.512 9.78452 34.1132 10.3863C34.7148 10.9878 35.0871 11.5607 35.3994 12.3628C35.6347 12.9678 35.915 13.8774 35.9913 15.5532C36.0736 17.3651 36.0915 17.9092 36.0915 22.4962C36.0915 27.0832 36.0736 27.6275 35.9913 29.4393C35.9147 31.1151 35.6347 32.0246 35.3994 32.6298C35.0879 33.4319 34.7148 34.0031 34.1132 34.6043C33.5117 35.2059 32.9405 35.5781 32.138 35.8898C31.5329 36.1261 30.6226 36.4054 28.9468 36.482C27.1349 36.5644 26.5908 36.5822 22.0015 36.5822C17.4121 36.5822 16.8682 36.5644 15.0564 36.482C13.3806 36.4047 12.4711 36.1247 11.8647 35.8894C11.0627 35.5778 10.4897 35.2055 9.88814 34.604C9.28658 34.0024 8.9143 33.4309 8.602 32.6284C8.3667 32.0233 8.08637 31.1137 8.01006 29.4379C7.92773 27.626 7.91123 27.0818 7.91123 22.4919C7.91123 17.9022 7.92773 17.3608 8.01006 15.5489C8.08672 13.8731 8.3667 12.9635 8.602 12.3577C8.91361 11.5555 9.28658 10.9827 9.88831 10.3811C10.4899 9.77953 11.0627 9.40708 11.8649 9.09495C12.4707 8.85862 13.3806 8.57933 15.0564 8.50233C16.642 8.43066 17.2564 8.40917 20.4597 8.40556V8.40986ZM31.1762 11.2637C30.0376 11.2637 29.1137 12.1866 29.1137 13.3255C29.1137 14.4642 30.0376 15.388 31.1762 15.388C32.3149 15.388 33.2387 14.4642 33.2387 13.3255C33.2387 12.1868 32.3149 11.263 31.1762 11.263V11.2637ZM22.0015 13.6735C17.1272 13.6735 13.1751 17.6256 13.1751 22.5002C13.1751 27.3747 17.1272 31.3249 22.0015 31.3249C26.8761 31.3249 30.8268 27.3747 30.8268 22.5002C30.8268 17.6258 26.8758 13.6735 22.0012 13.6735H22.0015ZM22.0015 16.7709C25.1656 16.7709 27.7308 19.3358 27.7308 22.5002C27.7308 25.6642 25.1656 28.2295 22.0015 28.2295C18.8373 28.2295 16.2724 25.6642 16.2724 22.5002C16.2724 19.3358 18.8373 16.7709 22.0015 16.7709Z" fill="white"/>
</g>
</g>
<defs>
<radialGradient id="paint0_radial_24_1249" cx="0" cy="0" r="1" gradientUnits="userSpaceOnUse" gradientTransform="translate(11.6875 47.8889) rotate(-90) scale(43.6073 40.5582)">
<stop stop-color="#FFDD55"/>
<stop offset="0.1" stop-color="#FFDD55"/>
<stop offset="0.5" stop-color="#FF543E"/>
<stop offset="1" stop-color="#C837AB"/>
</radialGradient>
<radialGradient id="paint1_radial_24_1249" cx="0" cy="0" r="1" gradientUnits="userSpaceOnUse" gradientTransform="translate(-7.37017 3.66955) rotate(78.681) scale(19.4927 80.3495)">
<stop stop-color="#3771C8"/>
<stop offset="0.128" stop-color="#3771C8"/>
<stop offset="1" stop-color="#6600FF" stop-opacity="0"/>
</radialGradient>
<clipPath id="clip0_24_1249">
<rect width="44" height="44" fill="white" transform="translate(0 0.5)"/>
</clipPath>
</defs>
</svg>
