<svg width="69" height="69" viewBox="0 0 69 69" fill="none" xmlns="http://www.w3.org/2000/svg">
<g id="bi:twitter" clip-path="url(#clip0_48_983)">
<path id="Vector" d="M22.0822 64.25C47.7437 64.25 61.7814 42.9873 61.7814 24.5805C61.7814 23.9855 61.7814 23.382 61.7559 22.787C64.4889 20.8086 66.8477 18.3592 68.7217 15.5535C66.1688 16.6791 63.4634 17.421 60.6934 17.755C63.6112 16.011 65.7965 13.2669 66.8432 10.0328C64.1019 11.6568 61.1015 12.7969 57.9734 13.403C55.8705 11.1634 53.0876 9.67967 50.056 9.18174C47.0244 8.6838 43.9132 9.19943 41.2044 10.6487C38.4955 12.0981 36.3401 14.4002 35.0721 17.1985C33.8041 19.9969 33.4942 23.1352 34.1904 26.1275C28.6431 25.8494 23.2161 24.4083 18.2616 21.8977C13.3071 19.3871 8.93559 15.8631 5.43068 11.5543C3.65138 14.6274 3.10837 18.2625 3.91193 21.7214C4.71548 25.1803 6.80536 28.2038 9.75718 30.1778C7.54522 30.1026 5.38189 29.5086 3.44168 28.4438V28.635C3.44549 31.8543 4.56074 34.9736 6.59889 37.4655C8.63705 39.9574 11.4731 41.6692 14.6277 42.3115C13.4303 42.6414 12.1934 42.8058 10.9514 42.8003C10.0759 42.8029 9.20205 42.7218 8.34193 42.558C9.23352 45.3293 10.9696 47.7522 13.307 49.4875C15.6444 51.2229 18.466 52.1836 21.3767 52.2353C16.432 56.1189 10.3241 58.2252 4.03668 58.215C2.92879 58.2197 1.82168 58.1558 0.72168 58.0238C7.10312 62.0921 14.5142 64.2524 22.0822 64.25Z" fill="white"/>
</g>
<defs>
<clipPath id="clip0_48_983">
<rect width="68" height="68" fill="white" transform="translate(0.72168 0.5)"/>
</clipPath>
</defs>
</svg>
