<svg width="68" height="69" viewBox="0 0 68 69" fill="none" xmlns="http://www.w3.org/2000/svg">
<g id="mdi:instagram">
<path id="Vector" d="M22.4968 6.16675H45.9468C54.8802 6.16675 62.1385 13.5334 62.1385 22.6001V46.4001C62.1385 50.7585 60.4326 54.9384 57.3961 58.0202C54.3596 61.1021 50.2411 62.8334 45.9468 62.8334H22.4968C13.5635 62.8334 6.30518 55.4667 6.30518 46.4001V22.6001C6.30518 18.2417 8.01108 14.0618 11.0476 10.98C14.0841 7.89811 18.2025 6.16675 22.4968 6.16675ZM21.9385 11.8334C19.2731 11.8334 16.7168 12.9081 14.8321 14.8209C12.9473 16.7338 11.8885 19.3282 11.8885 22.0334V46.9667C11.8885 52.6051 16.3831 57.1667 21.9385 57.1667H46.5052C49.1706 57.1667 51.7269 56.0921 53.6116 54.1792C55.4963 52.2664 56.5552 49.672 56.5552 46.9667V22.0334C56.5552 16.3951 52.0606 11.8334 46.5052 11.8334H21.9385ZM48.8781 16.0834C49.8036 16.0834 50.6912 16.4566 51.3456 17.1207C52 17.7849 52.3677 18.6858 52.3677 19.6251C52.3677 20.5644 52 21.4652 51.3456 22.1294C50.6912 22.7936 49.8036 23.1667 48.8781 23.1667C47.9526 23.1667 47.065 22.7936 46.4106 22.1294C45.7562 21.4652 45.3885 20.5644 45.3885 19.6251C45.3885 18.6858 45.7562 17.7849 46.4106 17.1207C47.065 16.4566 47.9526 16.0834 48.8781 16.0834ZM34.2218 20.3334C37.9238 20.3334 41.4742 21.826 44.0919 24.4827C46.7096 27.1395 48.1802 30.7428 48.1802 34.5001C48.1802 38.2573 46.7096 41.8607 44.0919 44.5174C41.4742 47.1742 37.9238 48.6667 34.2218 48.6667C30.5199 48.6667 26.9695 47.1742 24.3518 44.5174C21.7341 41.8607 20.2635 38.2573 20.2635 34.5001C20.2635 30.7428 21.7341 27.1395 24.3518 24.4827C26.9695 21.826 30.5199 20.3334 34.2218 20.3334ZM34.2218 26.0001C32.0007 26.0001 29.8704 26.8956 28.2998 28.4897C26.7292 30.0837 25.8468 32.2457 25.8468 34.5001C25.8468 36.7544 26.7292 38.9164 28.2998 40.5105C29.8704 42.1045 32.0007 43.0001 34.2218 43.0001C36.443 43.0001 38.5732 42.1045 40.1439 40.5105C41.7145 38.9164 42.5968 36.7544 42.5968 34.5001C42.5968 32.2457 41.7145 30.0837 40.1439 28.4897C38.5732 26.8956 36.443 26.0001 34.2218 26.0001Z" fill="white"/>
</g>
</svg>
