<svg width="43" height="45" viewBox="0 0 43 45" fill="none" xmlns="http://www.w3.org/2000/svg">
<g id="logos:facebook" clip-path="url(#clip0_24_1254)">
<path id="Vector" d="M43 22.5C43 10.3498 33.374 0.5 21.5 0.5C9.62595 0.5 0 10.3496 0 22.5C0 33.4808 7.86228 42.5824 18.1406 44.2327V28.8594H12.6816V22.5H18.1406V17.6531C18.1406 12.1394 21.3505 9.09375 26.2614 9.09375C28.6138 9.09375 31.0742 9.52344 31.0742 9.52344V14.9375H28.3632C25.6922 14.9375 24.8594 16.6334 24.8594 18.3733V22.5H30.8223L29.869 28.8594H24.8594V44.2327C35.1377 42.5824 43 33.4809 43 22.5Z" fill="#1877F2"/>
<path id="Vector_2" d="M29.869 28.8594L30.8223 22.5H24.8594V18.3733C24.8594 16.6332 25.6923 14.9375 28.3632 14.9375H31.0742V9.52344C31.0742 9.52344 28.6138 9.09375 26.2614 9.09375C21.3505 9.09375 18.1406 12.1394 18.1406 17.6531V22.5H12.6816V28.8594H18.1406V44.2327C19.2519 44.4109 20.3751 44.5003 21.5 44.5C22.6249 44.5003 23.7481 44.411 24.8594 44.2327V28.8594H29.869Z" fill="white"/>
</g>
<defs>
<clipPath id="clip0_24_1254">
<rect width="43" height="44" fill="white" transform="translate(0 0.5)"/>
</clipPath>
</defs>
</svg>
