<svg width="22" height="20" viewBox="0 0 22 20" fill="none" xmlns="http://www.w3.org/2000/svg">
<g id="ph:copyright-light">
<path id="Vector" d="M11 2.32031C9.34513 2.32031 7.72742 2.7643 6.35144 3.59614C4.97547 4.42798 3.90302 5.6103 3.26973 6.99359C2.63644 8.37689 2.47074 9.89902 2.79359 11.3675C3.11644 12.836 3.91334 14.1849 5.08351 15.2436C6.25368 16.3024 7.74457 17.0234 9.36765 17.3155C10.9907 17.6076 12.6731 17.4577 14.202 16.8847C15.7309 16.3117 17.0377 15.3414 17.9571 14.0965C18.8765 12.8515 19.3672 11.3879 19.3672 9.89062C19.3646 7.88358 18.4822 5.95941 16.9136 4.54021C15.345 3.12101 13.2183 2.32267 11 2.32031ZM11 16.5703C9.53982 16.5703 8.11243 16.1786 6.89833 15.4446C5.68424 14.7106 4.73796 13.6674 4.17917 12.4468C3.62039 11.2263 3.47418 9.88321 3.75905 8.58748C4.04392 7.29175 4.74706 6.10154 5.77957 5.16737C6.81207 4.2332 8.12756 3.59702 9.55969 3.33929C10.9918 3.08155 12.4763 3.21383 13.8253 3.7194C15.1743 4.22497 16.3274 5.08112 17.1386 6.17959C17.9498 7.27806 18.3828 8.56951 18.3828 9.89062C18.3806 11.6616 17.6021 13.3594 16.218 14.6117C14.834 15.864 12.9574 16.5683 11 16.5703ZM8.21094 9.89062C8.21094 10.4202 8.39512 10.9365 8.7374 11.3661C9.07967 11.7958 9.56269 12.1171 10.118 12.2846C10.6734 12.4521 11.2729 12.4572 11.8316 12.2993C12.3904 12.1414 12.88 11.8284 13.2313 11.4047C13.3097 11.3102 13.4264 11.2478 13.5557 11.2311C13.685 11.2145 13.8163 11.245 13.9207 11.316C14.0252 11.387 14.0942 11.4925 14.1125 11.6095C14.1309 11.7265 14.0972 11.8453 14.0188 11.9398C13.5434 12.5129 12.8809 12.9361 12.125 13.1496C11.3691 13.3631 10.5581 13.356 9.80687 13.1293C9.05565 12.9027 8.40228 12.4679 7.9393 11.8867C7.47631 11.3054 7.22718 10.6071 7.22718 9.89062C7.22718 9.17415 7.47631 8.47584 7.9393 7.89458C8.40228 7.31331 9.05565 6.87857 9.80687 6.65191C10.5581 6.42525 11.3691 6.41816 12.125 6.63165C12.8809 6.84514 13.5434 7.26838 14.0188 7.84145C14.0972 7.93593 14.1309 8.05473 14.1125 8.17172C14.0942 8.28871 14.0252 8.39429 13.9207 8.46525C13.8163 8.53621 13.685 8.56674 13.5557 8.5501C13.4264 8.53347 13.3097 8.47105 13.2313 8.37656C12.88 7.95286 12.3904 7.63989 11.8316 7.48197C11.2729 7.32405 10.6734 7.3292 10.118 7.49668C9.56269 7.66416 9.07967 7.98549 8.7374 8.41514C8.39512 8.8448 8.21094 9.361 8.21094 9.89062Z" fill="white"/>
</g>
</svg>
